<svg width="358" height="119" viewBox="0 0 358 119" fill="none" xmlns="http://www.w3.org/2000/svg">
<path fill-rule="evenodd" clip-rule="evenodd" d="M16 29.9072V36.7969H25.1715H34.343V65.8965V94.9962H42.4139H50.4848V65.8965V36.7969H59.6562H68.8277V29.9072V23.0176H42.4139H16V29.9072ZM86.9872 58.9982V94.9962H95.0581H103.129V80.945V66.8937L107.761 66.8943L112.392 66.8948L118.863 80.7189C122.422 88.3221 125.399 94.6457 125.479 94.7714C125.592 94.9509 127.541 94.9897 134.609 94.9527L143.595 94.9055L135.837 79.4038C131.571 70.8779 128.079 63.8418 128.078 63.768C128.077 63.6942 128.606 63.3961 129.254 63.1055C133.647 61.1371 137.114 57.4803 138.814 53.0238C140.814 47.7822 140.545 40.4923 138.147 34.9131C137.294 32.9296 136.025 31.0529 134.416 29.3945C131.44 26.329 127.769 24.494 122.664 23.5213C120.717 23.1501 120.056 23.1342 103.817 23.0684L86.9872 23V58.9982ZM161.46 59.0069V94.9962H169.622H177.785V59.0069V23.0176H169.622H161.46V59.0069ZM196.13 23.1536C196.132 23.2284 199.545 39.4031 203.715 59.0975L211.297 94.9055L219.289 94.9527L227.28 95L227.444 94.2275C227.534 93.8027 229.541 84.0114 231.904 72.4689C234.268 60.9266 236.244 51.4829 236.296 51.4832C236.348 51.4834 238.413 61.2739 240.885 73.2398L245.379 94.9958L253.366 94.996L261.354 94.9962L268.852 59.3242C272.976 39.7047 276.387 23.5095 276.432 23.3349C276.508 23.0364 276.054 23.0176 268.8 23.0176C261.614 23.0176 261.08 23.0393 260.988 23.3349C260.908 23.5921 252.817 62.8711 252.596 64.0713C252.561 64.2642 250.723 55.2488 248.512 44.037C246.301 32.8254 244.455 23.5093 244.409 23.3349C244.333 23.0388 243.79 23.0176 236.281 23.0176H228.235L228.138 23.4255C228.085 23.65 226.143 32.7135 223.823 43.567C221.503 54.4206 219.551 63.5149 219.484 63.7767C219.405 64.0889 218.048 57.289 215.545 44.0431C213.444 32.9278 211.682 23.6498 211.627 23.4255L211.529 23.0176H203.828C199.593 23.0176 196.129 23.0787 196.13 23.1536ZM291.033 58.9616L280.566 94.9055L288.635 94.9529C293.073 94.9788 296.746 94.9585 296.798 94.9077C296.849 94.8569 297.809 91.5314 298.93 87.5175L300.969 80.2197H310.948H320.926L322.849 87.608L324.772 94.9962H332.926C340.603 94.9962 341.075 94.9777 340.993 94.6789C340.945 94.5045 336.297 78.3093 330.664 58.6896L320.423 23.0176H310.962H301.5L291.033 58.9616ZM18.7514 29.9072V34.0773H27.9229H37.0944V63.1769V92.2766H42.4139H47.7333V63.1769V34.0773H56.9048H66.0763V29.9072V25.7372H42.4139H18.7514V29.9072ZM294.089 58.7803C288.801 76.954 284.439 91.9254 284.396 92.05C284.335 92.2276 285.428 92.2766 289.467 92.2766H294.615L294.803 91.5967C294.907 91.2228 295.846 87.8573 296.89 84.1178L298.789 77.3188H310.971H323.153L325.079 84.7524L327.005 92.1859L332.16 92.234L337.314 92.2822L334.436 82.2621C332.853 76.7512 328.556 61.7785 324.887 48.9897L318.216 25.7372H310.959H303.703L294.089 58.7803ZM89.7387 59.0975V92.2766H95.0581H100.378V78.1347V63.9928H107.234C112.503 63.9928 114.13 64.0452 114.264 64.2194C114.36 64.3442 117.362 70.7071 120.936 78.3593L127.433 92.2728L133.246 92.2746L139.058 92.2766L133.453 81.0809C130.37 74.9234 126.959 68.0796 125.873 65.8726L123.898 61.8599L125.115 61.5376C131.12 59.9479 135.115 56.0505 136.723 50.2134C137.101 48.841 137.147 48.2756 137.145 45.0463C137.143 41.9713 137.083 41.1669 136.747 39.754C134.899 31.9826 129.714 27.4629 121.19 26.1928C119.68 25.968 116.786 25.9205 104.551 25.9196L89.7387 25.9185V59.0975ZM164.394 59.0975V92.2766H169.622H174.85V59.0975V25.9185H169.622H164.394V59.0975ZM199.621 25.9638C199.626 25.9887 202.786 40.8989 206.645 59.0975L213.66 92.1859L219.278 92.2338L224.895 92.2819L225.081 91.4179C225.184 90.9429 227.419 80.0294 230.049 67.1657C232.679 54.302 234.873 43.5935 234.926 43.3692C235.014 42.995 235.126 42.9613 236.283 42.9613C237.439 42.9613 237.551 42.995 237.64 43.3692C237.693 43.5935 239.99 54.6896 242.745 68.0269L247.753 92.2766H253.373H258.994L259.189 91.3247C259.297 90.8013 262.286 76.5845 265.831 59.7321C269.377 42.8797 272.426 28.3775 272.607 27.5049L272.937 25.9185L268.146 25.9192L263.355 25.9198L258.574 49.1717L253.794 72.4236L252.475 72.4769C251.75 72.5061 251.157 72.4712 251.157 72.3994C251.157 72.2087 242.166 26.6116 242.054 26.2332C241.965 25.9352 241.57 25.9167 236.243 25.9613L230.527 26.0091L225.559 49.2163L220.591 72.4236L219.274 72.4769C218.549 72.5061 217.956 72.4741 217.956 72.4058C217.956 72.1984 209.327 26.5772 209.223 26.2358C209.134 25.9442 208.741 25.9185 204.37 25.9185C201.754 25.9185 199.617 25.939 199.621 25.9638ZM100.378 44.9582V56.2331L107.944 56.1488C116.147 56.0572 117.615 55.9198 120.218 54.9989C123.452 53.8549 125.305 52.0009 126.27 48.9444C126.641 47.7693 126.698 47.2276 126.686 44.9557C126.675 42.6391 126.617 42.1599 126.202 40.9227C125.036 37.4503 122.518 35.2567 118.526 34.2365C117.073 33.8651 116.467 33.836 108.678 33.762L100.378 33.6831V44.9582ZM305.495 52.5261C303.046 61.4754 301.045 68.8995 301.046 69.0241C301.049 69.2025 303.155 69.2507 310.955 69.2507C319.033 69.2507 320.86 69.2066 320.86 69.0116C320.86 68.8799 319.05 61.8431 316.839 53.3739C314.627 44.9047 312.719 37.5877 312.598 37.1142L312.379 36.2529L311.162 36.2539L309.946 36.2546L305.495 52.5261ZM103.129 44.9424V53.2957H108.683C115.789 53.2957 117.999 53.0314 120.364 51.8988C122.702 50.7788 123.669 49.0414 123.815 45.7032C124.028 40.8143 122.36 38.287 118.079 37.0108C117.352 36.7938 115.707 36.7218 110.145 36.6631L103.129 36.5889V44.9424ZM307.938 54.5252C306.232 60.7793 304.801 65.9986 304.758 66.1232C304.696 66.3016 306.01 66.3498 310.935 66.3498C314.376 66.3498 317.191 66.295 317.191 66.228C317.191 65.9322 311.269 43.4009 311.16 43.2842C311.094 43.2124 309.644 48.2708 307.938 54.5252Z" fill="#FBFAF8"/>
</svg>
