<svg width="575" height="191" viewBox="0 0 575 191" fill="none" xmlns="http://www.w3.org/2000/svg">
<path fill-rule="evenodd" clip-rule="evenodd" d="M25.6807 48.0024V59.0606H40.4013H55.1219V105.767V152.473H68.076H81.0301V105.767V59.0606H95.7508H110.471V48.0024V36.9442H68.076H25.6807V48.0024ZM139.618 94.6946V152.473H152.572H165.526V129.92V107.367L172.96 107.368L180.394 107.369L190.781 129.557C196.493 141.761 201.271 151.91 201.398 152.112C201.581 152.4 204.709 152.462 216.053 152.403L230.475 152.327L218.025 127.447C211.177 113.762 205.572 102.469 205.57 102.35C205.568 102.232 206.418 101.754 207.458 101.287C214.508 98.1276 220.074 92.2583 222.803 85.1054C226.012 76.6925 225.581 64.9918 221.731 56.037C220.363 52.8534 218.326 49.8413 215.743 47.1794C210.967 42.2591 205.074 39.3139 196.881 37.7527C193.756 37.157 192.695 37.1314 166.63 37.0257L139.618 36.916V94.6946ZM259.149 94.7086V152.473H272.251H285.352V94.7086V36.9442H272.251H259.149V94.7086ZM314.797 37.1625C314.8 37.2827 320.278 63.2438 326.971 94.8541L339.14 152.327L351.967 152.403L364.795 152.479L365.057 151.239C365.202 150.557 368.423 134.842 372.216 116.316C376.009 97.7897 379.181 82.6322 379.265 82.6328C379.349 82.6331 382.663 98.3473 386.63 117.553L393.843 152.472L406.663 152.473L419.484 152.473L431.519 95.2178C438.138 63.7277 443.613 37.7337 443.684 37.4535C443.807 36.9745 443.078 36.9442 431.435 36.9442C419.901 36.9442 419.044 36.9792 418.896 37.4535C418.768 37.8664 405.781 100.911 405.428 102.837C405.371 103.147 402.421 88.6767 398.872 70.6812C395.323 52.6861 392.36 37.7334 392.287 37.4535C392.164 36.9783 391.294 36.9442 379.241 36.9442H366.327L366.172 37.599C366.086 37.9593 362.97 52.5066 359.246 69.927C355.522 87.3473 352.389 101.944 352.282 102.364C352.155 102.865 349.976 91.9513 345.958 70.6911C342.587 52.8505 339.758 37.959 339.671 37.599L339.513 36.9442H327.153C320.355 36.9442 314.795 37.0423 314.797 37.1625ZM467.12 94.6358L450.32 152.327L463.272 152.403C470.395 152.445 476.291 152.412 476.373 152.331C476.455 152.249 477.996 146.912 479.795 140.469L483.068 128.756H499.084H515.101L518.187 140.615L521.272 152.473H534.36C546.682 152.473 547.439 152.443 547.307 151.964C547.231 151.684 539.771 125.69 530.73 94.1993L514.293 36.9442H499.107H483.921L467.12 94.6358ZM30.0968 48.0024V54.6955H44.8175H59.5381V101.402V148.108H68.076H76.614V101.402V54.6955H91.3346H106.055V48.0024V41.3093H68.076H30.0968V48.0024ZM472.025 94.3448C463.538 123.515 456.537 147.544 456.468 147.744C456.37 148.029 458.125 148.108 464.606 148.108H472.87L473.172 147.017C473.338 146.417 474.845 141.015 476.521 135.013L479.569 124.1H499.121H518.674L521.765 136.031L524.856 147.962L533.13 148.039L541.404 148.117L536.784 132.034C534.243 123.189 527.346 99.1572 521.457 78.6306L510.749 41.3093H499.103H487.456L472.025 94.3448ZM144.034 94.8541V148.108H152.572H161.11V125.41V102.711H172.115C180.573 102.711 183.184 102.795 183.399 103.075C183.553 103.275 188.371 113.488 194.107 125.77L204.536 148.102L213.865 148.105L223.195 148.108L214.198 130.138C209.249 120.255 203.774 109.271 202.031 105.728L198.861 99.2878L200.815 98.7704C210.454 96.2189 216.866 89.9635 219.446 80.5946C220.053 78.392 220.127 77.4843 220.124 72.3013C220.121 67.3658 220.024 66.0746 219.485 63.8068C216.519 51.3335 208.197 44.0791 194.515 42.0406C192.092 41.6798 187.447 41.6035 167.808 41.6021L144.034 41.6003V94.8541ZM263.86 94.8541V148.108H272.251H280.642V94.8541V41.6003H272.251H263.86V94.8541ZM320.4 41.6731C320.408 41.7129 325.481 65.6445 331.673 94.8541L342.934 147.962L351.95 148.039L360.965 148.116L361.265 146.73C361.429 145.967 365.018 128.451 369.238 107.804C373.459 87.157 376.982 69.9694 377.066 69.6095C377.207 69.0088 377.387 68.9547 379.243 68.9547C381.099 68.9547 381.28 69.0088 381.422 69.6095C381.507 69.9694 385.195 87.7792 389.616 109.186L397.655 148.108H406.675H415.695L416.01 146.58C416.182 145.74 420.98 122.921 426.67 95.8726C432.361 68.8238 437.255 45.5472 437.546 44.1466L438.076 41.6003L430.386 41.6015L422.695 41.6023L415.023 78.9228L407.35 116.243L405.234 116.328C404.069 116.375 403.117 116.319 403.117 116.204C403.117 115.898 388.686 42.7128 388.506 42.1055C388.364 41.6271 387.73 41.5974 379.18 41.669L370.005 41.7458L362.032 78.9944L354.059 116.243L351.943 116.328C350.78 116.375 349.828 116.324 349.828 116.214C349.828 115.881 335.978 42.6575 335.812 42.1096C335.67 41.6416 335.038 41.6003 328.022 41.6003C323.823 41.6003 320.393 41.6332 320.4 41.6731ZM161.11 72.1598V90.2565L173.255 90.1212C186.421 89.9742 188.776 89.7537 192.955 88.2756C198.145 86.4394 201.12 83.4636 202.669 78.5579C203.265 76.6719 203.355 75.8023 203.337 72.1558C203.318 68.4376 203.226 67.6685 202.559 65.6827C200.688 60.1093 196.646 56.5885 190.239 54.951C187.908 54.355 186.934 54.3082 174.432 54.1894L161.11 54.0629V72.1598ZM490.332 84.3066C486.402 98.6706 483.189 110.587 483.192 110.787C483.196 111.073 486.576 111.15 499.095 111.15C512.062 111.15 514.994 111.08 514.994 110.766C514.994 110.555 512.089 99.2608 508.539 85.6674C504.989 72.074 501.926 60.3299 501.733 59.5698L501.381 58.1876L499.428 58.189L497.476 58.1902L490.332 84.3066ZM165.526 72.1345V85.542H174.44C185.846 85.542 189.393 85.1177 193.189 83.2998C196.941 81.5022 198.494 78.7135 198.728 73.3556C199.069 65.5086 196.393 61.4523 189.522 59.404C188.355 59.0556 185.714 58.9401 176.788 58.8458L165.526 58.7268V72.1345ZM494.253 87.5153C491.516 97.5534 489.219 105.931 489.149 106.131C489.049 106.417 491.159 106.494 499.064 106.494C504.587 106.494 509.105 106.406 509.105 106.299C509.105 105.824 499.6 69.6604 499.426 69.473C499.319 69.3578 496.991 77.4768 494.253 87.5153Z" fill="#FBFAF8"/>
</svg>
